<svg xmlns="http://www.w3.org/2000/svg" viewBox="0 0 512 512">
  <!-- Símbolo de Engrenagem Minimalista com 'S' -->
  <defs>
    <linearGradient id="grad1" x1="0%" y1="0%" x2="100%" y2="100%">
      <stop offset="0%" style="stop-color:#0ea5e9;stop-opacity:1" />
      <stop offset="100%" style="stop-color:#3b82f6;stop-opacity:1" />
    </linearGradient>
  </defs>
  
  <!-- Outer Gear Shape -->
  <path fill="url(#grad1)" d="M480 224H445.6C439.8 195.1 428.3 167.9 412.3 143.6L436.4 119.5C442.6 113.3 442.6 103.2 436.4 97L399 59.6C392.8 53.4 382.7 53.4 376.5 59.6L352.4 83.7C328.1 67.7 300.9 56.2 272 50.4V16C272 7.2 264.8 0 256 0H208C199.2 0 192 7.2 192 16V50.4C163.1 56.2 135.9 67.7 111.6 83.7L87.5 59.6C81.3 53.4 71.2 53.4 65 59.6L27.6 97C21.4 103.2 21.4 113.3 27.6 119.5L51.7 143.6C35.7 167.9 24.2 195.1 18.4 224H16C7.2 224 0 231.2 0 240V288C0 296.8 7.2 304 16 304H41.6C47.4 332.9 58.9 360.1 74.9 384.4L50.8 408.5C44.6 414.7 44.6 424.8 50.8 431L88.2 468.4C94.4 474.6 104.5 474.6 110.7 468.4L134.8 444.3C159.1 460.3 186.3 471.8 215.2 477.6V512C215.2 520.8 222.4 528 231.2 528H279.2C288 528 295.2 520.8 295.2 512V477.6C324.1 471.8 351.3 460.3 375.6 444.3L399.7 468.4C405.9 474.6 416 474.6 422.2 468.4L459.6 431C465.8 424.8 465.8 414.7 459.6 408.5L435.5 384.4C451.5 360.1 463 332.9 468.8 304H512C520.8 304 528 296.8 528 288V240C528 231.2 520.8 224 512 224ZM256 384C176.5 384 112 319.5 112 240C112 160.5 176.5 96 256 96C335.5 96 400 160.5 400 240C400 319.5 335.5 384 256 384Z"/>
  
  <!-- "S" Shape in Center (White) -->
  <path fill="#ffffff" d="M256 336C202.1 336 168 298.6 168 253.5C168 245 174.5 237.5 183.3 237.5H211.5C219.7 237.5 226.7 242.8 228.6 250.7C230.9 259.9 239.5 272 256 272C278.2 272 284 259.6 284 250.7C284 233 263.2 226.8 244.3 220.6C215.1 210.9 169.8 196.1 169.8 152.4C169.8 113.8 203.8 80 254.1 80C294.6 80 329.8 103.5 339.7 146.4C341.6 154.6 335.3 162.3 326.9 162.3H299.7C291.5 162.3 284.4 156.9 282.6 148.9C279.8 136.9 270.2 128 254.1 128C240.2 128 225.8 136.7 225.8 150.3C225.8 162.2 242.3 167.3 262.2 173.9C293.4 184.2 340 198.8 340 244.7C340 293.9 299.7 336 256 336Z"/>
</svg>
